<svg width="91" height="100" viewBox="0 0 91 100" fill="none" xmlns="http://www.w3.org/2000/svg">
<g filter="url(#filter0_d_118_288)">
<path fill-rule="evenodd" clip-rule="evenodd" d="M20 55.1256C20 67.5628 29.0452 77.8643 40.9799 80L41.1284 79.8785C41.1208 79.8771 41.1131 79.8758 41.1055 79.8744V62.1608H34.8241V55.1256H41.1055V49.598C41.1055 43.3166 45.1256 39.799 50.9045 39.799C52.6633 39.799 54.6734 40.0503 56.4322 40.3015V46.7085H53.1658C50.1508 46.7085 49.397 48.2161 49.397 50.2261V55.1256H56.0553L54.9246 62.1608H49.397V79.8744C49.3205 79.8883 49.2439 79.9018 49.1674 79.915L49.2714 80C61.206 77.8643 70.2513 67.5628 70.2513 55.1256C70.2513 41.3065 58.9447 30 45.1256 30C31.3065 30 20 41.3065 20 55.1256Z" fill="white"/>
</g>
<defs>
<filter id="filter0_d_118_288" x="-10" y="0" width="110.251" height="110" filterUnits="userSpaceOnUse" color-interpolation-filters="sRGB">
<feFlood flood-opacity="0" result="BackgroundImageFix"/>
<feColorMatrix in="SourceAlpha" type="matrix" values="0 0 0 0 0 0 0 0 0 0 0 0 0 0 0 0 0 0 127 0" result="hardAlpha"/>
<feOffset/>
<feGaussianBlur stdDeviation="15"/>
<feComposite in2="hardAlpha" operator="out"/>
<feColorMatrix type="matrix" values="0 0 0 0 1 0 0 0 0 1 0 0 0 0 1 0 0 0 0.5 0"/>
<feBlend mode="normal" in2="BackgroundImageFix" result="effect1_dropShadow_118_288"/>
<feBlend mode="normal" in="SourceGraphic" in2="effect1_dropShadow_118_288" result="shape"/>
</filter>
</defs>
</svg>
