<svg width="90" height="100" viewBox="0 0 90 100" fill="none" xmlns="http://www.w3.org/2000/svg">
<g filter="url(#filter0_d_118_294)">
<path fill-rule="evenodd" clip-rule="evenodd" d="M70 55C70 68.8071 58.8071 80 45 80C31.1929 80 20 68.8071 20 55C20 41.1929 31.1929 30 45 30C58.8071 30 70 41.1929 70 55ZM57.8884 51.4828C59.9078 51.4145 61.5984 52.9867 61.6728 55C61.6978 56.4045 60.9084 57.6972 59.6528 58.325C59.6778 58.6917 59.6778 59.0584 59.6528 59.425C59.6528 65.03 53.1278 69.5789 45.0806 69.5789C37.0334 69.5789 30.5084 65.0239 30.5084 59.425C30.4834 59.0584 30.4834 58.6917 30.5084 58.325C30.1417 58.1634 29.8128 57.9334 29.5267 57.6661C28.0539 56.2867 27.9856 53.975 29.365 52.5084C30.7445 51.0356 33.0561 50.9672 34.5228 52.3467C37.4061 50.3956 40.7928 49.3267 44.2728 49.2706L46.1184 40.5956V40.5834C46.2117 40.1606 46.6284 39.8995 47.0445 39.9928L53.1717 41.2172C53.5628 40.5334 54.2711 40.0734 55.0606 39.9928C56.4339 39.8434 57.6639 40.8378 57.8134 42.2111C57.9628 43.5845 56.9684 44.815 55.595 44.9639C54.2217 45.1134 52.9911 44.1189 52.8422 42.7456L47.4917 41.6206L45.87 49.4195C49.3067 49.4939 52.65 50.5567 55.4961 52.4956C56.1422 51.8806 56.9934 51.5139 57.8884 51.4828ZM39.1772 55C37.7978 55 36.6728 56.125 36.6728 57.5045C36.6728 58.8839 37.7917 59.9961 39.1772 60.0089C40.5567 60.0089 41.6817 58.8839 41.6817 57.5045C41.6817 56.125 40.5567 55 39.1772 55ZM51.1956 64.3772V64.4767C51.4689 64.2095 51.475 63.7622 51.2078 63.4889C50.94 63.2156 50.4928 63.2095 50.2195 63.4767C48.6972 64.5639 46.8578 65.0984 44.9934 64.9989C43.1295 65.0861 41.2961 64.5267 39.7922 63.4267C39.5372 63.2217 39.1828 63.2217 38.9345 63.4267C38.6484 63.6628 38.605 64.0911 38.8411 64.3772C40.6189 65.7134 42.7934 66.3972 45.0184 66.3039C47.2434 66.3967 49.4184 65.7134 51.1956 64.3772ZM50.7295 60.1889H50.8539C52.2334 60.1328 53.3084 58.9711 53.2528 57.5911C53.2528 56.2117 52.1278 55.0867 50.7484 55.0867C49.3689 55.0867 48.2439 56.2117 48.2439 57.5911C48.2439 58.9706 49.3689 60.0956 50.7484 60.0956L50.7295 60.1889Z" fill="white"/>
</g>
<defs>
<filter id="filter0_d_118_294" x="-10" y="0" width="110" height="110" filterUnits="userSpaceOnUse" color-interpolation-filters="sRGB">
<feFlood flood-opacity="0" result="BackgroundImageFix"/>
<feColorMatrix in="SourceAlpha" type="matrix" values="0 0 0 0 0 0 0 0 0 0 0 0 0 0 0 0 0 0 127 0" result="hardAlpha"/>
<feOffset/>
<feGaussianBlur stdDeviation="15"/>
<feComposite in2="hardAlpha" operator="out"/>
<feColorMatrix type="matrix" values="0 0 0 0 1 0 0 0 0 1 0 0 0 0 1 0 0 0 0.5 0"/>
<feBlend mode="normal" in2="BackgroundImageFix" result="effect1_dropShadow_118_294"/>
<feBlend mode="normal" in="SourceGraphic" in2="effect1_dropShadow_118_294" result="shape"/>
</filter>
</defs>
</svg>
