<svg width="102" height="100" viewBox="0 0 102 100" fill="none" xmlns="http://www.w3.org/2000/svg">
<g filter="url(#filter0_d_118_290)">
<path d="M81.5251 35.9187C79.2616 36.9228 76.8286 37.6011 74.2756 37.9063C76.8815 36.3442 78.8832 33.8706 79.8255 30.9229C77.3863 32.3696 74.685 33.4199 71.8097 33.9859C69.5074 31.5326 66.2269 30 62.5963 30C55.6255 30 49.9734 35.6514 49.9734 42.6222C49.9734 43.6115 50.0851 44.575 50.3005 45.4988C39.8098 44.9725 30.509 39.9471 24.2833 32.3103C23.1967 34.1745 22.5741 36.3426 22.5741 38.656C22.5741 43.0353 24.8026 46.8988 28.1895 49.1623C26.1204 49.0968 24.1741 48.5289 22.4723 47.5836C22.4709 47.6362 22.4709 47.6891 22.4709 47.7423C22.4709 53.8579 26.8219 58.9593 32.5964 60.1197C31.5372 60.4082 30.4221 60.5623 29.2709 60.5623C28.4576 60.5623 27.667 60.483 26.8961 60.3359C28.5025 65.3505 33.1639 68.9999 38.6877 69.1014C34.3677 72.4872 28.9252 74.5052 23.011 74.5052C21.9922 74.5052 20.9875 74.4452 20 74.3286C25.5862 77.9103 32.2211 80 39.3494 80C62.5668 80 75.2635 60.7663 75.2635 44.0856C75.2635 43.5383 75.2512 42.9941 75.2269 42.4524C77.6928 40.6731 79.8329 38.4502 81.5251 35.9187Z" fill="white"/>
</g>
<defs>
<filter id="filter0_d_118_290" x="-10" y="0" width="121.525" height="110" filterUnits="userSpaceOnUse" color-interpolation-filters="sRGB">
<feFlood flood-opacity="0" result="BackgroundImageFix"/>
<feColorMatrix in="SourceAlpha" type="matrix" values="0 0 0 0 0 0 0 0 0 0 0 0 0 0 0 0 0 0 127 0" result="hardAlpha"/>
<feOffset/>
<feGaussianBlur stdDeviation="15"/>
<feComposite in2="hardAlpha" operator="out"/>
<feColorMatrix type="matrix" values="0 0 0 0 1 0 0 0 0 1 0 0 0 0 1 0 0 0 0.5 0"/>
<feBlend mode="normal" in2="BackgroundImageFix" result="effect1_dropShadow_118_290"/>
<feBlend mode="normal" in="SourceGraphic" in2="effect1_dropShadow_118_290" result="shape"/>
</filter>
</defs>
</svg>
