<svg width="48" height="57" viewBox="0 0 48 57" fill="none" xmlns="http://www.w3.org/2000/svg">
<path fill-rule="evenodd" clip-rule="evenodd" d="M43.4703 0.518555H4.34193C1.17044 0.518555 0 1.689 0 4.86197V43.1488C0 43.5078 0.0144798 43.8413 0.0461986 44.1504C0.0522161 44.2081 0.0578265 44.2656 0.0634288 44.3231L0.063433 44.3232C0.125051 44.9555 0.185692 45.5778 0.776126 46.2782C0.839071 46.353 1.4967 46.8424 1.4967 46.8424C1.56014 46.8735 1.61997 46.9032 1.67775 46.9318L1.67788 46.9319L1.67796 46.9319L1.6781 46.932C1.94232 47.0629 2.16366 47.1725 2.49091 47.3042L21.7582 55.3765C22.7585 55.8351 23.1767 56.0138 23.9032 55.9994V55.9995H23.906H23.9089V55.9994C24.6354 56.0138 25.0536 55.8351 26.054 55.3765L45.3212 47.3042C45.6482 47.1726 45.8694 47.0631 46.1333 46.9324L46.2317 46.8836L46.3155 46.8424C46.3155 46.8424 46.9731 46.353 47.036 46.2782C47.6264 45.5778 47.687 44.9555 47.7487 44.3232L47.7487 44.3231L47.7543 44.2659L47.7589 44.2193L47.7659 44.1504C47.7976 43.8413 47.8122 43.5078 47.8122 43.1488V4.86197C47.8122 1.689 46.6416 0.518555 43.4703 0.518555ZM40.8494 39.0106L40.8405 39.099L40.8317 39.196L40.814 39.2844L40.7876 39.3726L40.7705 39.4521L40.7439 39.5405L40.7086 39.62L40.6732 39.6907L40.6385 39.7701L40.5943 39.8407L40.5502 39.9114L40.4977 39.9821L40.4535 40.0527L40.4011 40.1145L40.3392 40.1763L40.2867 40.2293L40.2162 40.2912L40.1548 40.3442L40.0842 40.3972L40.014 40.4407L39.9439 40.4937L39.8644 40.5378L39.7854 40.5732L39.7065 40.6173L39.6181 40.6527L39.5304 40.6881L39.4426 40.7145L39.3548 40.7411L39.2753 40.7675L39.1876 40.7852L39.1086 40.8028L39.0297 40.8204L38.9413 40.8382L38.8534 40.8469L38.7745 40.8558L38.6862 40.8647L38.5896 40.8735L38.5018 40.8823H38.414H38.3174H38.2202H38.1325L38.0446 40.8735H37.9481L37.8602 40.8647L37.7719 40.8558L37.6753 40.8469L37.5875 40.8293L37.4998 40.8204L37.4114 40.8028L37.3235 40.7852L37.2358 40.7675L37.148 40.7498L37.0597 40.7234L36.9807 40.7057L36.893 40.6792L36.8051 40.6527L36.7257 40.6173L36.6379 40.5908L36.5589 40.5644L36.4711 40.5291L36.3917 40.4937L36.3127 40.4583L36.2337 40.4148L36.1543 40.3794L36.0753 40.3352L36.0051 40.2912L35.9257 40.2469L35.8555 40.2028L35.7849 40.1587L35.7148 40.1057L35.6446 40.0527L35.574 39.9997L35.5038 39.9467L35.442 39.8937L35.3719 39.8319L35.4249 39.7613L35.4861 39.6995L35.5391 39.6287L35.6005 39.5581L35.6535 39.4963L35.7059 39.4257L35.7677 39.355L35.8202 39.2932L35.882 39.2226L35.9345 39.1607L35.9963 39.0901L36.0488 39.0194L36.1018 38.9576L36.1631 38.887L36.216 38.8163L36.2773 38.7545L36.3303 38.6839L36.4005 38.7369L36.4795 38.7899L36.5501 38.8428L36.6291 38.8958L36.6997 38.94L36.7787 38.9929L36.8488 39.0371L36.9283 39.0724L36.9984 39.1166L37.0774 39.152L37.1569 39.1872L37.2358 39.2226L37.3149 39.2491L37.3943 39.2844L37.482 39.3109L37.5699 39.3373L37.6488 39.3638L37.7372 39.3816L37.8249 39.3992L37.9127 39.4168L38.0093 39.4257L38.0976 39.4433H38.1855L38.282 39.4521H38.3699H38.4753L38.5719 39.4433L38.6603 39.4257L38.7392 39.408L38.8182 39.3903L38.8888 39.3638L38.9502 39.3286L39.0208 39.2756L39.0732 39.2137L39.1086 39.143L39.1352 39.0636L39.1438 38.9752V38.9576L39.1352 38.8516L39.0998 38.7633L39.0556 38.7015L38.9943 38.6485L38.9236 38.5955L38.8534 38.5602L38.7745 38.5249L38.6862 38.4895L38.5808 38.4455L38.5194 38.4277L38.4494 38.4101L38.3699 38.3835L38.2909 38.3659L38.2031 38.3394L38.1147 38.3218L38.0182 38.2953L37.9303 38.2776L37.8337 38.2511L37.7459 38.2335L37.6576 38.207L37.5699 38.1893L37.482 38.1628L37.4025 38.1364L37.3149 38.1186L37.2358 38.0921L37.1569 38.0656L37.0774 38.0391L36.9807 38.0038L36.893 37.9684L36.8051 37.9332L36.7169 37.8978L36.6379 37.8537L36.5501 37.8095L36.4795 37.7654L36.4005 37.7213L36.3303 37.6683L36.2597 37.6241L36.1984 37.571L36.1367 37.5093L36.0753 37.4474L36.0223 37.3856L35.9699 37.3238L35.9257 37.262L35.882 37.1913L35.8379 37.1119L35.8025 37.0506L35.776 36.9799L35.7501 36.9004L35.7236 36.8298L35.7059 36.7414L35.6883 36.6619L35.6794 36.5737L35.6706 36.4853L35.6618 36.3883V36.2911V36.2734V36.1851L35.6706 36.0968L35.6794 36.0173L35.6883 35.929L35.7059 35.8496L35.7236 35.7701L35.7501 35.6905L35.7677 35.6111L35.8025 35.5316L35.8379 35.4521L35.8731 35.3727L35.9169 35.2931L35.9609 35.2137L36.0134 35.143L36.0665 35.0723L36.1278 35.0017L36.1896 34.94L36.2509 34.8692L36.3215 34.8074L36.3828 34.7632L36.4534 34.7102L36.5237 34.6572L36.5937 34.6131L36.6732 34.569L36.7522 34.5336L36.8311 34.4895L36.9106 34.4542L36.9984 34.4276L37.0861 34.3924L37.1656 34.3659L37.2358 34.3481L37.3149 34.3305L37.3943 34.3129L37.482 34.2952L37.561 34.2775L37.6488 34.2687L37.7372 34.2599L37.8249 34.251L37.9127 34.2422H38.0005H38.0976H38.1943H38.2909L38.3875 34.251L38.4841 34.2599H38.5719L38.669 34.2687L38.7568 34.2864L38.8534 34.2952L38.9413 34.3129L39.0208 34.3305L39.1086 34.3481L39.1963 34.3659L39.2753 34.3835L39.3636 34.41L39.4426 34.4365L39.5216 34.4542L39.6099 34.4895L39.6889 34.516L39.7678 34.5513L39.8468 34.5866L39.935 34.622L40.014 34.6661L40.0842 34.7015L40.1637 34.7456L40.2427 34.7897L40.3128 34.834L40.3922 34.887L40.4624 34.931L40.5331 34.9841L40.6032 35.0371L40.6732 35.09L40.6208 35.1607L40.5767 35.2313L40.5242 35.302L40.4712 35.3727L40.4188 35.4521L40.3746 35.5227L40.3216 35.5934L40.2691 35.6641L40.225 35.7347L40.1724 35.8054L40.1195 35.8761L40.0753 35.9467L40.0229 36.0262L39.9698 36.0968L39.9174 36.1674L39.8733 36.2381L39.8208 36.3087L39.7501 36.2558L39.6712 36.2116L39.601 36.1674L39.5304 36.1144L39.4515 36.0792L39.3807 36.0349L39.3018 35.9996L39.2317 35.9643L39.1522 35.929L39.0821 35.8937L39.0032 35.8672L38.9325 35.8318L38.8358 35.8054L38.748 35.7788L38.6603 35.7524L38.5719 35.7347L38.4841 35.7171L38.3964 35.6993L38.3086 35.6905L38.2202 35.6817L38.1413 35.6728H38.0535H37.9481L37.8514 35.6905L37.7631 35.7082L37.6842 35.7258L37.614 35.7612L37.5522 35.7965L37.4732 35.8672L37.4202 35.9467L37.3855 36.0262L37.3765 36.1144V36.1322L37.3855 36.2469L37.4291 36.3441L37.4644 36.3971L37.5257 36.4589L37.6052 36.503L37.6753 36.5472L37.7631 36.5825L37.8602 36.6179L37.9657 36.6532L38.0358 36.6708L38.106 36.6973L38.1855 36.7149L38.2644 36.7414L38.3521 36.7592L38.4494 36.7857L38.546 36.8121L38.6426 36.8387L38.7392 36.8563L38.8269 36.8828L38.9236 36.9093L39.0119 36.9269L39.0998 36.9534L39.1876 36.9799L39.2665 37.0064L39.3548 37.0329L39.4338 37.0594L39.5127 37.0859L39.6099 37.1207L39.6976 37.1649L39.7854 37.2002L39.8733 37.2443L39.9528 37.2885L40.0318 37.3327L40.1018 37.3768L40.1724 37.4298L40.2427 37.4739L40.3128 37.5358L40.3834 37.5975L40.4447 37.6683L40.5065 37.73L40.559 37.8008L40.612 37.8802L40.6556 37.9508L40.6998 38.0304L40.7351 38.101L40.7616 38.1804L40.7876 38.2599L40.8052 38.3394L40.8229 38.4277L40.8405 38.5161L40.8494 38.6044L40.8582 38.7015V38.7986V38.8163V38.9135L40.8494 39.0106ZM34.6835 40.7764H34.5952H34.5075H34.4197H34.3319H34.2436H34.1557H34.068H33.9802H33.883H33.7953H33.7075H33.6197H33.5313H33.4436H33.3557H33.268H33.1796H33.0918H33.0041H32.9163H32.8284H32.7402H32.6524H32.5646H32.4768H32.3884H32.3006H32.2129H32.1162H32.028H31.9401H31.8523H31.7646H31.6763H31.5884H31.5007H31.4128H31.3246H31.2368H31.149H31.0611H30.9728H30.8851H30.7973H30.7095H30.6212H30.5334H30.4367H30.349H30.2612H30.1728H30.0851H29.9972H29.9095H29.8213H29.7334H29.6456V40.6881V40.5997V40.5114V40.4236V40.3352V40.2469V40.1587V40.0704V39.9821V39.8937V39.8054V39.7171V39.6287V39.5405V39.4521V39.3638V39.2756V39.1872V39.1077V39.0194V38.9311V38.8428V38.7545V38.6661V38.5779V38.4895V38.4011V38.3129V38.2246V38.1364V38.048V37.9596V37.8714V37.783V37.6947V37.6064V37.518V37.4298V37.3415V37.2532V37.1649V37.077V36.9888V36.9004V36.8121V36.7238V36.6355V36.5472V36.4589V36.3706V36.2822V36.1939V36.1056V36.0173V35.9378V35.8496V35.7612V35.6728V35.5846V35.4962V35.408V35.3196V35.2313V35.143V35.0547V34.9664V34.878V34.7897V34.7015V34.6131V34.5249V34.4365V34.3481H29.7334H29.8213H29.9095H29.9972H30.0851H30.1728H30.2612H30.349H30.4367H30.5246H30.6128H30.7007H30.7884H30.8763H30.9556H31.0435H31.1313H31.2192H31.3074H31.3952H31.483H31.5708H31.6591H31.7468H31.8346H31.9225H32.0108H32.0986H32.1864H32.2741H32.3625H32.4504H32.538H32.6258H32.7137H32.802H32.8898H32.9776H33.0653H33.1537H33.2415H33.3292H33.417H33.4966H33.5844H33.6721H33.76H33.8483H33.936H34.0238H34.1116H34.1999H34.2877H34.3755H34.4633H34.5516H34.6395H34.7272V34.4365V34.516V34.6042V34.6926V34.7809V34.8604V34.9487V35.0371V35.1165V35.2048V35.2931V35.3727V35.461V35.5492V35.6376V35.7171V35.8054H34.6395H34.5516H34.4633H34.3755H34.2877H34.1999H34.1204H34.0327H33.9449H33.857H33.7688H33.681H33.5931H33.5054H33.417H33.3292H33.2415H33.1537H33.0653H32.9864H32.8986H32.8108H32.7224H32.6348H32.5469H32.4591H32.3708H32.283H32.1952H32.1075H32.0191H31.9312H31.8523H31.7646H31.6763H31.5884H31.5007H31.4128H31.3246V35.8937V35.9819V36.0702V36.1586V36.2469V36.3264V36.4147V36.503V36.5913V36.6797V36.7679V36.8563H31.4128H31.5007H31.5884H31.6763H31.7646H31.8523H31.9401H32.028H32.1075H32.1952H32.283H32.3708H32.4591H32.5469H32.6348H32.7224H32.8108H32.8986H32.9864H33.0742H33.1625H33.2502H33.3381H33.426H33.5142H33.602H33.681H33.7688H33.857H33.9449H34.0327H34.1204H34.2087H34.2966H34.3843V36.9445V37.024V37.1119V37.2002V37.2797V37.3679V37.4563V37.5358V37.6241V37.7124V37.8008V37.8802V37.9684V38.0568V38.1364V38.2246H34.2966H34.2087H34.1204H34.0327H33.9449H33.857H33.7688H33.681H33.602H33.5142H33.426H33.3381H33.2502H33.1625H33.0742H32.9864H32.8986H32.8108H32.7224H32.6348H32.5469H32.4591H32.3708H32.283H32.1952H32.1075H32.028H31.9401H31.8523H31.7646H31.6763H31.5884H31.5007H31.4128H31.3246V38.3129V38.4101V38.4984V38.5867V38.6839V38.7722V38.8605V38.9576V39.0459V39.1342V39.2314V39.3196H31.4128H31.5007H31.5884H31.6763H31.7646H31.8523H31.9401H32.028H32.1162H32.2129H32.3006H32.3884H32.4768H32.5646H32.6524H32.7402H32.8284H32.9163H33.0041H33.0918H33.1796H33.268H33.3557H33.4436H33.5313H33.6197H33.7075H33.7953H33.883H33.9802H34.068H34.1557H34.2436H34.3319H34.4197H34.5075H34.5952H34.6835H34.7714V39.408V39.4875V39.5758V39.6641V39.7525V39.8319V39.9202V40.0085V40.0881V40.1763V40.2646V40.3442V40.4319V40.5202V40.6085V40.6881V40.7764H34.6835ZM28.2595 40.7764H28.1718H28.0839H27.9869H27.8991H27.8113H27.7235H27.6351H27.5474H27.4507H27.3629H27.2751H27.1868H27.0991H27.0113H26.9146H26.8263H26.7385H26.6507V40.6881V40.5997V40.5114V40.4231V40.3342V40.246V40.1576V40.0692V39.981V39.8927V39.8044V39.7156V39.6273V39.5389V39.4506V39.3623V39.2734V39.1851V39.0968V39.0085V38.9202V38.8319V38.7431V38.6548V38.5664V38.4781V38.3898V38.3015V38.2126V38.1243V38.036V37.9477V37.8595V37.7711V37.6823V37.594V37.5056V37.4174V37.329V37.2402V37.1519V37.0635V36.9752L26.6066 37.0458L26.5541 37.1259L26.5099 37.1965L26.4575 37.2673L26.4134 37.3466L26.3603 37.4174L26.3167 37.488L26.2725 37.568L26.2201 37.6386L26.1759 37.7092L26.123 37.78L26.0793 37.86L26.0263 37.9306L25.9827 38.0012L25.9385 38.0807L25.8855 38.1518L25.8418 38.2226L25.7888 38.302L25.7453 38.3727L25.6923 38.4433L25.6487 38.5233L25.6044 38.594L25.5515 38.6647L25.5079 38.7441L25.4549 38.8153L25.4113 38.8859L25.3583 38.9566L25.314 39.036L25.2704 39.1071L25.2175 39.1779L25.1739 39.2574L25.1209 39.328L25.0767 39.3986L25.0242 39.4787L24.9801 39.5493H24.9452L24.8923 39.4698L24.8481 39.3986L24.7956 39.3191L24.7515 39.2485L24.699 39.1691L24.6548 39.0979L24.6024 39.0184L24.5582 38.9477L24.5052 38.8683L24.4616 38.7976L24.4086 38.7176L24.365 38.6469L24.312 38.5674L24.2678 38.4968L24.2154 38.4168L24.1712 38.3462L24.1188 38.2667L24.0658 38.1961L24.0216 38.1161L23.9691 38.0454L23.925 37.966L23.8725 37.8953L23.8284 37.8152L23.7759 37.7446L23.7317 37.6651L23.6787 37.5945L23.6351 37.515L23.5821 37.4438L23.5385 37.3644L23.4855 37.2937L23.4413 37.2142L23.3889 37.1436L23.3446 37.0635L23.2922 36.9929V37.0812V37.1695V37.2579V37.3466V37.435V37.5233V37.6116V37.7V37.7887V37.8771V37.9566V38.0449V38.1332V38.2215V38.3103V38.3987V38.4869V38.5752V38.6636V38.7519V38.8407V38.929V39.0174V39.1057V39.194V39.2823V39.3711V39.4594V39.5478V39.636V39.7244V39.8131V39.8927V39.981V40.0692V40.1576V40.246V40.3342V40.4231V40.5114V40.5997V40.6881V40.7764H23.2044H23.1162H23.0283H22.9405H22.8528H22.7645H22.6766H22.5889H22.501H22.4127H22.325H22.2371H22.1493H22.0611H21.9733H21.8854H21.7976H21.7093H21.6215V40.6881V40.5997V40.5114V40.4236V40.3352V40.2469V40.1587V40.0704V39.9821V39.8937V39.8054V39.7171V39.6287V39.5405V39.4521V39.3638V39.2756V39.1872V39.1077V39.0194V38.9311V38.8428V38.7545V38.6661V38.5779V38.4895V38.4011V38.3129V38.2246V38.1364V38.048V37.9596V37.8714V37.783V37.6947V37.6064V37.518V37.4298V37.3415V37.2532V37.1649V37.077V36.9888V36.9004V36.8121V36.7238V36.6355V36.5472V36.4589V36.3706V36.2822V36.1939V36.1056V36.0173V35.9378V35.8496V35.7612V35.6728V35.5846V35.4962V35.408V35.3196V35.2313V35.143V35.0547V34.9664V34.878V34.7897V34.7015V34.6131V34.5249V34.4365V34.3481H21.7093H21.7976H21.8767H21.9643H22.0522H22.1405H22.2195H22.3072H22.3956H22.4834H22.5624H22.6501H22.7385H22.8263H22.9052H22.9929H23.0813H23.1692H23.2481H23.3358H23.4242L23.4678 34.4189L23.512 34.4983L23.5644 34.5684L23.6086 34.6479L23.6527 34.7185L23.6964 34.7981L23.7405 34.8681L23.7931 34.9477L23.8371 35.0184L23.8814 35.089L23.925 35.1679L23.9691 35.2386L24.0216 35.318L24.0658 35.3887L24.1099 35.4677L24.1535 35.5383L24.2065 35.6089L24.2508 35.688L24.2943 35.7585L24.3384 35.838L24.3822 35.9088L24.4352 35.9877L24.4793 36.0584L24.5228 36.1378L24.5671 36.2079L24.6107 36.2785L24.6637 36.358L24.7078 36.4288L24.7515 36.5083L24.7956 36.5784L24.8392 36.6579L24.8923 36.7285L24.9365 36.8074L24.9801 36.8782L25.0242 36.8074L25.0684 36.7285L25.1209 36.6579L25.1649 36.5784L25.2086 36.5083L25.2528 36.4288L25.3053 36.358L25.3494 36.2785L25.3936 36.2079L25.4372 36.1378L25.4902 36.0584L25.5338 35.9877L25.578 35.9088L25.6221 35.838L25.6746 35.7585L25.7187 35.688L25.7629 35.6089L25.8065 35.5383L25.8508 35.4677L25.9032 35.3887L25.9473 35.318L25.9915 35.2386L26.0352 35.1679L26.0881 35.089L26.1318 35.0184L26.1759 34.9477L26.2201 34.8681L26.2725 34.7981L26.3167 34.7185L26.3603 34.6479L26.4045 34.5684L26.4575 34.4983L26.5011 34.4189L26.5453 34.3481H26.633H26.7209H26.8003H26.8882H26.9759H27.0637H27.1432H27.2311H27.3187H27.4066H27.4861H27.5739H27.6616H27.7495H27.8289H27.9167H28.0045H28.0923H28.1718H28.2595H28.3473V34.4365V34.5249V34.6131V34.7015V34.7897V34.878V34.9664V35.0547V35.143V35.2313V35.3196V35.408V35.4962V35.5846V35.6728V35.7612V35.8496V35.9378V36.0173V36.1056V36.1939V36.2822V36.3706V36.4589V36.5472V36.6355V36.7238V36.8121V36.9004V36.9888V37.077V37.1649V37.2532V37.3415V37.4298V37.518V37.6064V37.6947V37.783V37.8714V37.9596V38.048V38.1364V38.2246V38.3129V38.4011V38.4895V38.5779V38.6661V38.7545V38.8428V38.9311V39.0194V39.1077V39.1872V39.2756V39.3638V39.4521V39.5405V39.6287V39.7171V39.8054V39.8937V39.9821V40.0704V40.1587V40.2469V40.3352V40.4236V40.5114V40.5997V40.6881V40.7764H28.2595ZM18.0584 38.1275L18.0319 38.0475L17.9971 37.9592L17.9618 37.8797L17.9353 37.7997L17.9005 37.7202L17.8652 37.6318L17.8386 37.5518L17.8033 37.4723L17.7686 37.3929L17.742 37.313L17.7066 37.2246L17.6807 37.1451L17.6454 37.0651L17.61 36.9856L17.5836 36.9061L17.5487 36.8174L17.5135 36.7378L17.487 36.6584L17.4516 36.5784L17.4168 36.49L17.3903 36.4101L17.355 36.3306L17.3202 36.4101L17.2938 36.49L17.2584 36.5784L17.2231 36.6584L17.1971 36.7378L17.1618 36.8174L17.1264 36.9061L17.0917 36.9856L17.0651 37.0651L17.0298 37.1451L16.9944 37.2246L16.9684 37.313L16.9332 37.3929L16.8978 37.4723L16.8714 37.5518L16.8365 37.6318L16.8012 37.7202L16.7659 37.7997L16.74 37.8797L16.7046 37.9592L16.6693 38.0475L16.6428 38.1275L16.608 38.207H16.6958H16.7835H16.8714H16.9597H17.0474H17.1352H17.2231H17.3114H17.3903H17.4781H17.5665H17.6542H17.742H17.8299H17.9176H18.0059H18.0937L18.0584 38.1275ZM20.8195 40.7764H20.7313H20.6522H20.5645H20.4761H20.3884H20.3005H20.2216H20.1332H20.0455H19.9577H19.8698H19.7816H19.7026H19.6148H19.5269H19.4387H19.3509H19.2719H19.1841H19.0959L19.061 40.6968L19.0345 40.6173L18.9992 40.5378L18.9639 40.4496L18.9379 40.3706L18.9026 40.2912L18.8672 40.2117L18.8412 40.1322L18.806 40.0527L18.7706 39.9732L18.7442 39.8937L18.7093 39.8054L18.674 39.726L18.6475 39.6465L18.6121 39.567H18.5243H18.4366H18.3488H18.261H18.1815H18.0937H18.0059H17.9176H17.8299H17.742H17.6542H17.5665H17.4781H17.3903H17.3114H17.2231H17.1352H17.0474H16.9597H16.8714H16.7835H16.6958H16.608H16.5202H16.4406H16.353H16.2651H16.1767H16.089L16.0542 39.6465L16.0277 39.726L15.9923 39.8054L15.9571 39.8937L15.9311 39.9732L15.8958 40.0527L15.8604 40.1322L15.8339 40.2117L15.7992 40.2912L15.7638 40.3706L15.7373 40.4496L15.7024 40.5378L15.6672 40.6173L15.6407 40.6968L15.6053 40.7764H15.5175H15.4298H15.342H15.2536H15.1659H15.0692H14.9815H14.8936H14.8053H14.7176H14.6298H14.5419H14.4536H14.3659H14.2781H14.1815H14.0932H14.0054H13.9175H13.8297L13.8645 40.6968L13.8999 40.6173L13.9351 40.5378L13.97 40.4496L13.9965 40.3706L14.0319 40.2912L14.0671 40.2117L14.1019 40.1322L14.1373 40.0527L14.1726 39.9643L14.2074 39.8848L14.2428 39.8054L14.2692 39.726L14.3045 39.6465L14.3393 39.567L14.3747 39.4787L14.4099 39.3992L14.4448 39.3196L14.4802 39.2402L14.5154 39.1607L14.5419 39.0812L14.5767 38.9929L14.6121 38.9135L14.6474 38.834L14.6822 38.7545L14.7176 38.675L14.7529 38.5955L14.7877 38.5071L14.8142 38.4277L14.8496 38.3483L14.8848 38.2688L14.9197 38.1893L14.955 38.1098L14.9902 38.0215L15.0251 37.942L15.0604 37.8625L15.0869 37.783L15.1222 37.7036L15.157 37.6241L15.1924 37.5358L15.2277 37.4563L15.2625 37.3768L15.2978 37.2973L15.3331 37.2179L15.3596 37.1383L15.3945 37.0594L15.4298 36.971L15.465 36.8917L15.4999 36.8121L15.5352 36.7326L15.5705 36.6532L15.6053 36.5737L15.6318 36.4853L15.6672 36.4059L15.7024 36.3264L15.7373 36.2469L15.7727 36.1674L15.8079 36.0879L15.8428 35.9996L15.8781 35.9202L15.9046 35.8407L15.9398 35.7612L15.9747 35.6817L16.01 35.6022L16.0453 35.514L16.0801 35.4345L16.1155 35.355L16.1508 35.2755L16.1767 35.1961L16.2121 35.1165L16.2475 35.0282L16.2828 34.9487L16.3176 34.8692L16.353 34.7897L16.3882 34.7102L16.423 34.6308L16.4496 34.5425L16.4849 34.463L16.5202 34.3835L16.555 34.304H16.6428H16.7223H16.81H16.8978H16.9862H17.0651H17.1528H17.2407H17.3291H17.4081H17.4957H17.5836H17.6719H17.7509H17.8386H17.9264H18.0148H18.0937H18.1815L18.2168 34.3835L18.2522 34.463L18.287 34.5425L18.3223 34.6308L18.3488 34.7102L18.3836 34.7897L18.4189 34.8692L18.4542 34.9487L18.4896 35.0282L18.5243 35.1165L18.5597 35.1961L18.5951 35.2755L18.621 35.355L18.6563 35.4345L18.6917 35.514L18.7271 35.6022L18.7618 35.6817L18.7971 35.7612L18.8325 35.8407L18.8672 35.9202L18.8937 35.9996L18.929 36.0879L18.9639 36.1674L18.9992 36.2469L19.0345 36.3264L19.0699 36.4059L19.1046 36.4853L19.1399 36.5737L19.1665 36.6532L19.2013 36.7326L19.2365 36.8121L19.2719 36.8917L19.3073 36.971L19.342 37.0594L19.3774 37.1383L19.4127 37.2179L19.4387 37.2973L19.4739 37.3768L19.5093 37.4563L19.5442 37.5358L19.5794 37.6241L19.6148 37.7036L19.6502 37.783L19.6849 37.8625L19.7114 37.942L19.7467 38.0215L19.7816 38.1098L19.8168 38.1893L19.8522 38.2688L19.8875 38.3483L19.9223 38.4277L19.9577 38.5071L19.9841 38.5955L20.019 38.675L20.0542 38.7545L20.0896 38.834L20.1244 38.9135L20.1597 38.9929L20.1951 39.0812L20.2304 39.1607L20.2564 39.2402L20.2917 39.3196L20.3271 39.3992L20.3619 39.4787L20.3971 39.567L20.4325 39.6465L20.4678 39.726L20.5025 39.8054L20.5291 39.8848L20.5645 39.9643L20.5993 40.0527L20.6345 40.1322L20.6698 40.2117L20.7047 40.2912L20.7399 40.3706L20.7753 40.4496L20.8019 40.5378L20.8366 40.6173L20.8719 40.6968L20.9072 40.7764H20.8195ZM13.1171 39.9555L13.0464 40.0085L12.9851 40.0527L12.9144 40.1057L12.8443 40.1498L12.7742 40.2028L12.7035 40.2469L12.6334 40.2912L12.5539 40.3352L12.4749 40.3794L12.3959 40.4236L12.3165 40.4583L12.2375 40.5026L12.1497 40.5378L12.0708 40.5732L11.9825 40.6085L11.9036 40.6438L11.8245 40.6703L11.7451 40.6968L11.6661 40.7234L11.5783 40.7498L11.4994 40.7764L11.411 40.7941L11.332 40.8117L11.2443 40.8293L11.156 40.8469L11.0681 40.8558L10.9715 40.8647L10.8837 40.8735L10.7871 40.8823L10.6987 40.8912L10.6022 40.8999H10.5056H10.4088H10.3123H10.2239L10.1362 40.8912L10.0395 40.8823L9.95178 40.8735L9.86401 40.8647L9.77565 40.8558L9.68788 40.8382L9.60001 40.8204L9.52111 40.8028L9.43285 40.7852L9.35385 40.7587L9.26608 40.7411L9.18659 40.7145L9.10758 40.6792L9.02858 40.6527L8.94091 40.6173L8.86142 40.5821L8.78242 40.5468L8.70351 40.5114L8.62392 40.4673L8.55388 40.4236L8.47488 40.3794L8.40425 40.3352L8.33412 40.2912L8.26349 40.2381L8.19335 40.1852L8.12312 40.1322L8.06135 40.0792L8.00008 40.0262L7.93822 39.9643L7.87695 39.9114L7.81509 39.8496L7.75382 39.7877L7.70082 39.726L7.64832 39.6553L7.59533 39.5935L7.5512 39.5228L7.49869 39.4521L7.45466 39.3816L7.41092 39.3109L7.36679 39.2314L7.32266 39.1607L7.28789 39.0812L7.25252 39.0017L7.21726 38.9222L7.18239 38.8428L7.15589 38.7722L7.12053 38.6926L7.10289 38.6131L7.07689 38.5337L7.05926 38.4455L7.03276 38.3659L7.01513 38.2776L7.00626 38.1981L6.98853 38.1098L6.97986 38.0304L6.9709 37.942L6.96262 37.8537L6.95386 37.7654V37.6683V37.5799V37.5623V37.4739L6.96262 37.3768V37.2885L6.9709 37.2002L6.97986 37.103L6.99749 37.0153L7.00626 36.9269L7.02389 36.8474L7.05039 36.7592L7.06812 36.6708L7.09403 36.5913L7.12053 36.503L7.14703 36.4235L7.18239 36.3352L7.21726 36.2558L7.25252 36.1763L7.28789 36.0968L7.32266 36.0173L7.36679 35.9378L7.41092 35.8672L7.45466 35.7965L7.49869 35.7258L7.54292 35.6552L7.59533 35.5846L7.64832 35.514L7.70082 35.4433L7.75382 35.3814L7.81509 35.3196L7.86809 35.2577L7.92946 35.1961L7.99122 35.1341L8.05249 35.0812L8.12312 35.0194L8.18449 34.9664L8.25462 34.9134L8.32525 34.8692L8.39539 34.8162L8.46611 34.7721L8.53615 34.728L8.61515 34.6837L8.69465 34.6396L8.77355 34.5955L8.85255 34.5601L8.93195 34.5249L9.01982 34.4806L9.08995 34.4542L9.17772 34.4276L9.25731 34.3924L9.33622 34.3746L9.41512 34.3481L9.50338 34.3305L9.58238 34.304L9.67015 34.2864L9.75802 34.2775L9.84628 34.2599L9.93414 34.251L10.0218 34.2422L10.1097 34.2334L10.198 34.2245H10.2947H10.3824H10.479H10.5756L10.6728 34.2334L10.7695 34.2422H10.8572L10.945 34.251L11.0416 34.2687L11.1211 34.2775L11.2089 34.2952L11.2968 34.3129L11.3762 34.3305L11.4551 34.3481L11.5342 34.3659L11.6137 34.3924L11.6926 34.41L11.7627 34.4365L11.8422 34.463L11.9212 34.4983L12.0001 34.5336L12.0796 34.569L12.1586 34.6131L12.2375 34.6485L12.3082 34.6926L12.3871 34.7367L12.4573 34.7809L12.5368 34.8251L12.6069 34.878L12.677 34.9222L12.7477 34.9752L12.8178 35.0282L12.8884 35.09L12.9586 35.143L12.9056 35.2137L12.8443 35.2755L12.7913 35.3461L12.73 35.4167L12.677 35.4874L12.6245 35.5492L12.5627 35.6198L12.5103 35.6905L12.4573 35.7524L12.3959 35.8231L12.343 35.8937L12.2816 35.9643L12.2286 36.0262L12.1762 36.0968L12.1145 36.1674L12.0619 36.2381L12.0001 36.2999L11.9476 36.3706L11.877 36.3176L11.8068 36.2558L11.7362 36.2116L11.6661 36.1586L11.5959 36.1144L11.5253 36.0702L11.4551 36.0262L11.3762 35.9819L11.3055 35.9467L11.2354 35.9113L11.1648 35.8848L11.0858 35.8583L11.0069 35.8318L10.9274 35.8142L10.8396 35.7965L10.7518 35.7788L10.664 35.7701L10.5673 35.7612L10.4702 35.7524H10.3736H10.2858L10.198 35.7612L10.1185 35.7701L10.0308 35.7877L9.95178 35.8054L9.87228 35.8318L9.79338 35.8583L9.71438 35.8937L9.63538 35.929L9.56475 35.9731L9.49471 36.0173L9.42398 36.0615L9.36271 36.1144L9.30085 36.1674L9.23958 36.2204L9.18659 36.2822L9.12531 36.3441L9.07232 36.4147L9.02858 36.4765L8.98445 36.5472L8.94091 36.6267L8.89668 36.6973L8.86142 36.7768L8.83492 36.8563L8.80005 36.9358L8.77355 37.024L8.75592 37.1119L8.73829 37.1913L8.72056 37.2885L8.71179 37.3768L8.70351 37.465V37.5623V37.5799V37.6683L8.71179 37.7565L8.72056 37.836L8.72942 37.9244L8.74705 38.0038L8.76478 38.0834L8.78242 38.1628L8.80891 38.2423L8.83492 38.3129L8.87028 38.4011L8.90555 38.4807L8.94919 38.5602L8.99332 38.6309L9.03745 38.7015L9.08995 38.7722L9.14295 38.834L9.20422 38.8958L9.25731 38.9576L9.31848 39.0106L9.38921 39.0636L9.45935 39.1166L9.52939 39.1607L9.60001 39.2049L9.67911 39.2402L9.75802 39.2756L9.83741 39.3109L9.92528 39.3373L10.013 39.3638L10.1014 39.3816L10.1892 39.3992L10.2769 39.408L10.3736 39.4168H10.4702H10.5756L10.6728 39.408L10.7695 39.3992L10.8572 39.3903L10.945 39.3726L11.0334 39.355L11.1211 39.3286L11.2 39.3109L11.2791 39.2756L11.3498 39.2402L11.4287 39.2049L11.4904 39.1696L11.5607 39.1254V39.0371V38.9488V38.8605V38.7722V38.675V38.5867V38.4984V38.4101V38.3218H11.4728H11.3934H11.3055H11.2178H11.13H11.0505H10.9626H10.8749H10.7871H10.7077H10.6198H10.5321H10.4442H10.3648H10.2769V38.2335V38.154V38.0656V37.9774V37.889V37.8095V37.7213V37.6329V37.5446V37.465V37.3768V37.2885V37.2002V37.1207V37.0329H10.3648H10.4531H10.5409H10.6286H10.7165H10.8042H10.8926H10.9804H11.0681H11.156H11.2443H11.332H11.4198H11.5076H11.5959H11.6838H11.7716H11.8593H11.9476H12.0355H12.1232H12.211H12.2993H12.3871H12.4749H12.5627H12.651H12.7388H12.8267H12.9144H13.0027H13.0905H13.1783V37.1207V37.2089V37.2973V37.3768V37.465V37.5534V37.6417V37.73V37.8184V37.8978V37.9861V38.0745V38.1628V38.2511V38.3394V38.4277V38.5071V38.5955V38.6839V38.7722V38.8605V38.9488V39.0371V39.1166V39.2049V39.2932V39.3816V39.4698V39.5581V39.6377V39.726V39.8142V39.9026L13.1171 39.9555ZM14.1002 19.8036H10.2897V26.2161H14.3122V29.1637H7.05393V7.89133H14.2519V10.8388H10.2897V16.8561H14.1002V19.8036ZM37.5828 20.4422V25.2438C37.5828 26.0947 37.1895 26.4896 36.3734 26.4896H35.7682C34.9215 26.4896 34.5282 26.0947 34.5282 25.2438V11.8113C34.5282 10.9604 34.9215 10.5656 35.7682 10.5656H36.3126C37.1292 10.5656 37.5226 10.9604 37.5226 11.8113V15.9751H40.6977V11.629C40.6977 8.98539 39.4275 7.70896 36.7969 7.70896H35.2238C32.5931 7.70896 31.2923 9.01554 31.2923 11.6596V25.3954C31.2923 28.0396 32.5931 29.3461 35.2238 29.3461H36.8269C39.4582 29.3461 40.7584 28.0396 40.7584 25.3954V20.4422H37.5828ZM29.5822 29.1637H26.3459V7.89123H29.5822V29.1637ZM21.6504 17.3423C21.6504 18.1933 21.2576 18.5886 20.441 18.5886H19.1101V10.7479H20.441C21.2576 10.7479 21.6504 11.1428 21.6504 11.9936V17.3423ZM20.9548 7.89124H15.8742V29.1637H19.1101V21.4446H20.9548C23.586 21.4446 24.8863 20.1381 24.8863 17.4946V11.8419C24.8863 9.19781 23.586 7.89124 20.9548 7.89124ZM33.2122 48.3983H14.6878L23.757 51.5164L33.2122 48.3983Z" fill="#F2F3FF"/>
</svg>
