<svg width="92" height="76" viewBox="0 0 92 76" fill="none" xmlns="http://www.w3.org/2000/svg">
<g opacity="0.3">
<path fill-rule="evenodd" clip-rule="evenodd" d="M28.8943 75.003H21.7102V68.4097H28.7813V69.8699H23.6324V70.9927H28.5067V72.37H23.6353V73.5056H28.8943V75.0059V75.003Z" fill="white"/>
<path fill-rule="evenodd" clip-rule="evenodd" d="M70.2281 75.0029H63.157V68.5139H70.1179V69.9442H65.052V71.0483H69.8491V72.4027H65.052V73.5212H70.2281V74.9986V75.0029Z" fill="white"/>
<path fill-rule="evenodd" clip-rule="evenodd" d="M38.6356 75.003H35.7294L31.902 70.0716H31.8649V75.003H29.9626V68.4097H32.9161L36.6962 73.3468H36.7334V68.4097H38.6399V75.003H38.6356Z" fill="white"/>
<path fill-rule="evenodd" clip-rule="evenodd" d="M61.671 75.003H58.7648L54.9375 70.0716H54.9003V75.003H52.9895V68.4097H55.9429L59.723 73.3468H59.7602V68.4097H61.671V75.003Z" fill="white"/>
<path fill-rule="evenodd" clip-rule="evenodd" d="M44.2522 75.0903C43.6429 75.0903 43.1185 75.075 42.6789 75.0445C42.2972 75.0251 41.9183 74.9685 41.5476 74.8757C41.2758 74.808 41.0198 74.688 40.7939 74.5225C40.5961 74.3683 40.4406 74.1666 40.3419 73.9361C40.2231 73.6569 40.1474 73.3613 40.1174 73.0593C40.0772 72.6544 40.0586 72.2477 40.0616 71.8408V71.6477C40.0587 71.2379 40.0783 70.8282 40.1202 70.4205C40.1484 70.1174 40.2227 69.8203 40.3405 69.5395C40.4407 69.3099 40.5965 69.1089 40.7939 68.9546C41.0201 68.7901 41.2768 68.6724 41.549 68.6084C41.9189 68.5163 42.2968 68.4603 42.6775 68.4411C43.1209 68.4125 43.6453 68.3982 44.2507 68.3982H44.5368C45.044 68.3982 45.4884 68.4092 45.8698 68.4311C46.1998 68.4475 46.5281 68.4876 46.8523 68.5512C47.0895 68.5957 47.3185 68.6757 47.5317 68.7886C47.7032 68.8797 47.8504 69.0107 47.9608 69.1705C48.0701 69.3392 48.1437 69.5286 48.1767 69.7269C48.2195 69.9768 48.2396 70.23 48.2368 70.4835V70.7366H46.3775V70.6565C46.3811 70.5271 46.3572 70.3985 46.3074 70.279C46.2492 70.1668 46.1521 70.0799 46.0342 70.0344C45.851 69.9635 45.6582 69.9201 45.4622 69.9057C45.2162 69.8818 44.892 69.8694 44.4896 69.8685H44.3265C43.9614 69.8685 43.6496 69.8747 43.3912 69.8871C43.1741 69.8946 42.9582 69.9219 42.7461 69.9686C42.5991 70.0001 42.4602 70.0619 42.3385 70.1502C42.2344 70.2329 42.156 70.3435 42.1125 70.4692C42.0586 70.631 42.0269 70.7994 42.0182 70.9698C42.0038 71.1686 41.9967 71.4074 41.9967 71.6849V71.8022C41.9967 72.0753 42.0038 72.3085 42.0182 72.503C42.0272 72.67 42.059 72.8351 42.1125 72.9935C42.1561 73.1184 42.2345 73.228 42.3385 73.3096C42.4602 73.3979 42.5991 73.4598 42.7461 73.4913C42.9582 73.5379 43.1741 73.5652 43.3912 73.5728C43.6496 73.5861 43.9614 73.5923 44.3265 73.5914H44.4896C44.7871 73.5914 45.0431 73.5914 45.2576 73.5756C45.4722 73.5599 45.6538 73.547 45.8011 73.5242C45.9223 73.5072 46.0406 73.474 46.153 73.4255C46.2332 73.3896 46.3035 73.3346 46.3575 73.2653C46.4068 73.1991 46.4396 73.1221 46.4533 73.0407C46.4691 72.9405 46.4768 72.839 46.4762 72.7375V72.5545H43.9461V71.2815H48.3126V72.7461C48.3157 73.0253 48.2951 73.3042 48.2511 73.5799C48.2158 73.7984 48.1401 74.0084 48.028 74.1992C47.9201 74.3735 47.7732 74.5204 47.5989 74.6283C47.3849 74.756 47.1516 74.8483 46.9081 74.9015C46.5788 74.9759 46.244 75.0237 45.907 75.0445C45.5179 75.0731 45.066 75.0874 44.5482 75.0874L44.2522 75.0903Z" fill="white"/>
<path fill-rule="evenodd" clip-rule="evenodd" d="M51.5878 75.0189H49.6555V68.4741H51.5878V75.0189Z" fill="white"/>
<path fill-rule="evenodd" clip-rule="evenodd" d="M6.8958 64.9556C5.96138 64.9556 5.14233 64.9304 4.43866 64.8798C3.82535 64.844 3.21598 64.7583 2.61654 64.6238C2.17043 64.5275 1.7423 64.3615 1.34792 64.1318C1.02459 63.9371 0.750131 63.6709 0.545558 63.3538C0.334525 63.0135 0.191257 62.6357 0.123639 62.241C0.0354582 61.7435 -0.00572336 61.2388 0.000638662 60.7336V53.2964H3.39029V59.6352C3.39029 60.027 3.40412 60.3636 3.43177 60.6449C3.45119 60.8903 3.50761 61.1314 3.59911 61.36C3.67634 61.5495 3.80214 61.7152 3.96382 61.8406C4.15315 61.9766 4.3675 62.0738 4.59455 62.1266C4.91073 62.2066 5.23417 62.2546 5.55996 62.2696C5.94326 62.2911 6.39808 62.3025 6.92869 62.3025H7.21474C7.74393 62.3025 8.1997 62.2901 8.58205 62.2654C8.90773 62.249 9.2313 62.2035 9.54888 62.1295C9.77655 62.0785 9.99126 61.9811 10.1796 61.8434C10.3392 61.7164 10.4641 61.5511 10.5429 61.3629C10.6356 61.1346 10.6925 60.8934 10.7117 60.6478C10.7384 60.3617 10.7517 60.028 10.7517 59.6466V53.2949H14.1428V60.7321C14.1477 61.2356 14.1095 61.7385 14.0284 62.2353C13.9656 62.6308 13.8262 63.0103 13.6179 63.3523C13.4166 63.6692 13.145 63.9354 12.8241 64.1304C12.4309 64.3603 12.0037 64.5264 11.5584 64.6224C10.9566 64.7573 10.3448 64.8429 9.72909 64.8784C9.01874 64.928 8.19159 64.9532 7.24764 64.9542L6.8958 64.9556Z" fill="white"/>
<path fill-rule="evenodd" clip-rule="evenodd" d="M31.573 64.8139H26.5043L19.8308 56.1896H19.765V64.8139H16.4412V53.2791H21.59L28.182 61.9119H28.2463V53.2791H31.5702V64.8082L31.573 64.8139Z" fill="white"/>
<path fill-rule="evenodd" clip-rule="evenodd" d="M41.5663 59.103C42.1512 59.103 42.616 59.0858 42.9636 59.0501C43.24 59.0339 43.5095 58.9573 43.7531 58.8255C43.9271 58.7204 44.0534 58.5516 44.1049 58.355C44.1665 58.0931 44.1944 57.8244 44.1879 57.5555V57.3567C44.194 57.091 44.1661 56.8257 44.1049 56.5672C44.0799 56.4699 44.0355 56.3787 43.9743 56.299C43.9131 56.2194 43.8364 56.153 43.7488 56.1038C43.5022 55.9771 43.2318 55.9035 42.955 55.8878C42.6075 55.852 42.1455 55.8349 41.5663 55.8349H37.3413V59.103H41.5663ZM47.6018 64.8139H44.2522V63.8785C44.2547 63.5881 44.2413 63.2979 44.2122 63.0089C44.1925 62.7947 44.1338 62.5858 44.0391 62.3925C43.9543 62.2276 43.8276 62.088 43.6716 61.9878C43.4788 61.8717 43.2665 61.7917 43.0451 61.7518C42.7292 61.6893 42.4087 61.652 42.0869 61.6402C41.7055 61.6202 41.2535 61.6102 40.731 61.6102H37.3413V64.8139H33.9832V53.2791H42.9264C43.7024 53.2663 44.478 53.3247 45.2434 53.4535C45.7595 53.5325 46.2496 53.7324 46.6736 54.0371C47.024 54.3126 47.2779 54.6922 47.3988 55.1212C47.5439 55.6648 47.6113 56.2263 47.599 56.7889V57.1936C47.6037 57.5923 47.5683 57.9905 47.4931 58.3821C47.4329 58.693 47.3161 58.9902 47.1485 59.2589C46.9906 59.5037 46.7812 59.7111 46.5349 59.8667C46.2495 60.0403 45.9366 60.1636 45.6095 60.2314V60.2972C45.9487 60.347 46.2819 60.4318 46.6035 60.5504C46.847 60.6394 47.0592 60.7975 47.2143 61.0052C47.3756 61.2416 47.4794 61.5124 47.5175 61.7961C47.578 62.2094 47.6053 62.627 47.599 63.0447V64.8082L47.6018 64.8139Z" fill="white"/>
<path fill-rule="evenodd" clip-rule="evenodd" d="M62.3318 64.8139H49.803V53.2791H62.1345V55.8292H53.1597V57.79H61.6596V60.1985H53.1597V62.1851H62.3318V64.8082V64.8139Z" fill="white"/>
<path fill-rule="evenodd" clip-rule="evenodd" d="M73.6591 60.346L71.3092 55.7192H71.2263L68.8935 60.346H73.6591ZM79.5917 64.8226H75.936L74.8791 62.7531H67.6893L66.6495 64.8226H63.021L69.2125 53.2949H73.373L79.5917 64.8226Z" fill="white"/>
<path fill-rule="evenodd" clip-rule="evenodd" d="M91.9391 64.8226H80.8347V53.2949H84.2244V62.1466H91.9391V64.8283V64.8226Z" fill="white"/>
<path fill-rule="evenodd" clip-rule="evenodd" d="M59.8288 26.6769C59.4269 28.6163 57.6376 33.5906 51.9353 36.2852L49.6469 33.7108L45.7853 37.5953C43.5865 37.5657 41.4244 37.0281 39.4678 36.0245C37.5112 35.021 35.8132 33.5785 34.5065 31.81C34.9173 31.9378 35.3416 32.0175 35.7708 32.0474C36.4029 32.0589 37.088 31.8272 37.088 30.7602V20.2837C37.0975 20.0142 37.0436 19.7461 36.9306 19.5011C36.8177 19.2562 36.6489 19.0411 36.4377 18.8732C36.2266 18.7053 35.979 18.5893 35.7149 18.5345C35.4508 18.4796 35.1775 18.4875 34.9169 18.5574C33.1291 18.9665 31.6989 23.4303 31.6989 23.4303C31.679 21.3689 32.1083 19.328 32.957 17.4494C33.8057 15.5708 35.0533 13.8996 36.6132 12.5519C39.2763 10.295 41.8779 9.51408 43.8545 9.20801C41.9022 10.3207 40.8038 12.1371 40.8038 13.6618C40.8038 16.106 42.2798 15.8171 42.7174 15.4567V29.6046C42.7914 29.7823 42.8875 29.95 43.0035 30.1037C43.199 30.3741 43.4565 30.5937 43.7544 30.744C44.0522 30.8943 44.3818 30.971 44.7155 30.9676C46.1943 30.9676 48.1123 29.2799 48.1123 29.2799V17.8237C48.1123 16.6581 47.2341 15.2493 46.3545 14.7688C46.3545 14.7688 47.9821 14.4827 49.2407 15.4424C49.4768 15.1533 49.7279 14.8769 49.993 14.6143C52.9193 11.7395 55.6811 10.9243 57.9809 10.5152C57.9809 10.5152 53.7946 13.8048 53.7946 18.2099C53.7946 21.4894 53.879 29.4859 53.879 29.4859C55.4365 30.9819 57.7435 28.8222 59.8288 26.6769Z" fill="white"/>
<path fill-rule="evenodd" clip-rule="evenodd" d="M45.9696 1.7544e-07C41.3568 0.000283058 36.8476 1.36842 33.0124 3.9314C29.1771 6.49438 26.188 10.1371 24.423 14.3989C22.658 18.6607 22.1964 23.3502 23.0966 27.8743C23.9968 32.3984 26.2184 36.554 29.4803 39.8156C32.7423 43.0771 36.8981 45.2982 41.4224 46.1978C45.9466 47.0974 50.636 46.6353 54.8976 44.8698C59.1592 43.1043 62.8016 40.1147 65.3641 36.2791C67.9266 32.4435 69.2942 27.9342 69.2939 23.3214C69.2939 20.2586 68.6905 17.2257 67.5184 14.396C66.3462 11.5664 64.6281 8.9953 62.4622 6.82967C60.2963 4.66404 57.725 2.94626 54.8952 1.77442C52.0654 0.602573 49.0325 -0.000375496 45.9696 1.7544e-07ZM45.9696 45.7117C41.5412 45.712 37.2121 44.3991 33.5298 41.939C29.8476 39.4789 26.9775 35.9821 25.2826 31.8908C23.5877 27.7995 23.1441 23.2975 24.0079 18.9541C24.8717 14.6108 27.004 10.621 30.1353 7.48956C33.2666 4.35808 37.2562 2.22546 41.5995 1.36141C45.9429 0.49736 50.4449 0.940679 54.5363 2.63531C58.6276 4.32994 62.1246 7.19976 64.5849 10.8819C67.0453 14.564 68.3585 18.893 68.3585 23.3214C68.3585 29.2594 65.9997 34.9543 61.801 39.1532C57.6023 43.3522 51.9076 45.7113 45.9696 45.7117Z" fill="white"/>
</g>
</svg>
